<?xml version="1.0" encoding="iso-8859-1"?>
<!-- Generator: Adobe Illustrator 19.0.0, SVG Export Plug-In . SVG Version: 6.00 Build 0)  -->
<svg version="1.1" id="Layer_1" xmlns="http://www.w3.org/2000/svg" xmlns:xlink="http://www.w3.org/1999/xlink" x="0px" y="0px"
	 viewBox="0 0 151.282 136.694" style="enable-background:new 0 0 151.282 136.694;" xml:space="preserve">
<g>
	<defs>
		<rect id="SVGID_1_" width="151.282" height="136.694"/>
	</defs>
	<clipPath id="SVGID_2_">
		<use xlink:href="#SVGID_1_"  style="overflow:visible;"/>
	</clipPath>
	<path style="clip-path:url(#SVGID_2_);fill:none;stroke:#DB812D;stroke-width:0.25;stroke-miterlimit:10;" d="M0.524,86.037
		c0,0-6.5-20.5,33-51c32.94-25.435,71.655-28.687,95,11c20,34-2,74-36,75S9.523,120.037,0.524,86.037z"/>
	<path style="clip-path:url(#SVGID_2_);fill:none;stroke:#DB812D;stroke-width:0.25;stroke-miterlimit:10;" d="M78.024,133.538
		c0,0,26-3,36-28s23-66,9-84s-45-23-70-21s-47,35-48,67s22,52,37,58C57.024,131.538,67.024,134.538,78.024,133.538z"/>
	<path style="clip-path:url(#SVGID_2_);fill:none;stroke:#DB812D;stroke-width:0.25;stroke-miterlimit:10;" d="M81.024,1.538
		c0,0,13-2,31,16s45,53,38,75s-37,45-66,44s-46-20-59-43s-4-47,4-59S61.024,2.538,81.024,1.538z"/>
</g>
</svg>
