<?xml version="1.0" encoding="iso-8859-1"?>
<!-- Generator: Adobe Illustrator 19.0.0, SVG Export Plug-In . SVG Version: 6.00 Build 0)  -->
<svg version="1.1" id="Layer_1" xmlns="http://www.w3.org/2000/svg" xmlns:xlink="http://www.w3.org/1999/xlink" x="0px" y="0px"
	 viewBox="0 0 148.264 138.476" style="enable-background:new 0 0 148.264 138.476;" xml:space="preserve">
<g>
	<defs>
		<rect id="SVGID_1_" width="148.264" height="138.476"/>
	</defs>
	<clipPath id="SVGID_2_">
		<use xlink:href="#SVGID_1_"  style="overflow:visible;"/>
	</clipPath>
	<path style="clip-path:url(#SVGID_2_);fill:#FBB017;" d="M131.873,43.431c-1.64-2.248-3.246-4.388-4.826-6.432
		c0.915,4.221,1.239,8.961,0.953,14.322c14.87,28.299,7.52,68.443-30.582,75.317c-11.386,9.348-24.096,10.204-35.699,8.297
		c24.929,9.232,50.115-1.436,62.407-10.918C142.202,110.07,163.901,87.34,131.873,43.431"/>
	<path style="clip-path:url(#SVGID_2_);fill:#FFD300;" d="M25.474,119.25c7.873,6.27,16.335,10.38,23.066,12.459
		c4.115,1.271,8.559,2.467,13.178,3.226c-5.677-2.102-11.34-5.239-16.836-9.655C37.465,123.779,31.002,121.725,25.474,119.25"/>
	<path style="clip-path:url(#SVGID_2_);fill:#FFD300;" d="M53.352,10.888c10.666-6.482,20.315-9.577,30.149-8.054
		C56.95-4.116,24.533-0.939,7.532,43.062C2.459,56.188,1.007,67.778,2.017,77.903C4.504,71.315,9.243,63.8,15.644,56.482
		C20.284,35.535,37.747,20.374,53.352,10.888"/>
	<path style="clip-path:url(#SVGID_2_);fill:#FFD300;" d="M127.047,36.999c-2.966-13.674-12.129-21.921-26.823-28.316
		c-2.123-0.925-4.34-1.82-6.629-2.663C103.743,10.837,114.488,20.746,127.047,36.999"/>
	<path style="clip-path:url(#SVGID_2_);fill:#FCB813;" d="M53.352,10.888c-15.605,9.486-33.068,24.647-37.708,45.594
		c16.492-18.853,44.004-36.389,72.403-33.346c18.514,1.983,32.229,13.486,39.952,28.185c0.287-5.361-0.038-10.101-0.953-14.322
		C114.488,20.746,103.743,10.837,93.594,6.02c-3.231-1.191-6.612-2.275-10.093-3.186C73.667,1.311,64.018,4.406,53.352,10.888"/>
	<path style="clip-path:url(#SVGID_2_);fill:#FCB813;" d="M97.418,126.638c-2.164,0.39-4.424,0.677-6.787,0.845
		c-18.064,1.28-33.262,0.324-45.748-2.202c5.496,4.416,11.159,7.552,16.836,9.654C73.322,136.842,86.032,135.986,97.418,126.638"/>
	<path style="clip-path:url(#SVGID_2_);fill:#FAAD18;" d="M2.017,77.903c-0.896,2.373-1.502,4.626-1.786,6.705
		c-1.739,12.752,6.281,26.154,25.243,34.643C14.049,110.153,3.871,96.505,2.017,77.903"/>
	<path style="clip-path:url(#SVGID_2_);fill:#F6921E;" d="M97.418,126.638C135.521,119.764,142.87,79.62,128,51.321
		c-0.569,10.681-3.559,23.83-9.131,40.287C112.981,108.994,105.536,119.973,97.418,126.638"/>
	<path style="clip-path:url(#SVGID_2_);fill:#F6921E;" d="M28.042,106.453C15.187,87.171,12.534,70.527,15.645,56.482
		C9.243,63.801,4.505,71.315,2.018,77.903c1.853,18.602,12.032,32.25,23.457,41.348c5.528,2.474,11.991,4.529,19.408,6.03
		C39.015,120.564,33.337,114.396,28.042,106.453"/>
	<path style="clip-path:url(#SVGID_2_);fill:#F48120;" d="M88.048,23.136c-28.399-3.043-55.911,14.493-72.403,33.346
		c-3.111,14.045-0.458,30.688,12.397,49.97c5.295,7.944,10.973,14.112,16.841,18.829c12.486,2.526,27.685,3.482,45.748,2.202
		c2.363-0.168,4.623-0.455,6.787-0.845c8.118-6.665,15.564-17.644,21.451-35.03c5.573-16.457,8.562-29.606,9.131-40.287
		C120.277,36.622,106.562,25.119,88.048,23.136"/>
	<rect x="28.357" y="62.565" style="clip-path:url(#SVGID_2_);fill:#FFFFFF;" width="5.823" height="24.844"/>
	<path style="clip-path:url(#SVGID_2_);fill:#FFFFFF;" d="M31.282,51.832c-1.02,0-1.889,0.36-2.608,1.081
		c-0.721,0.72-1.081,1.59-1.081,2.608c0,1.001,0.36,1.872,1.081,2.609c0.719,0.721,1.588,1.081,2.608,1.081
		c1.001,0,1.854-0.36,2.556-1.081c0.72-0.737,1.081-1.608,1.081-2.609c0-1.018-0.361-1.888-1.081-2.608
		C33.136,52.192,32.283,51.832,31.282,51.832"/>
	<path style="clip-path:url(#SVGID_2_);fill:#FFFFFF;" d="M111.704,65.642c-1.986-2.003-4.392-3.004-7.221-3.004
		c-2.899,0-5.359,1.045-7.378,3.136c-2.021-2.091-4.48-3.136-7.379-3.136c-2.811,0-5.218,1.001-7.22,3.004
		c-1.478,1.479-2.407,3.183-2.794,5.111c-0.599-1.637-1.567-3.122-2.908-4.452c-2.424-2.442-5.341-3.663-8.748-3.663
		c-3.409,0-6.316,1.221-8.723,3.663c-0.592,0.584-1.111,1.198-1.56,1.841c-0.446-0.649-0.962-1.264-1.555-1.841
		c-2.424-2.442-5.348-3.663-8.774-3.663c-3.409,0-6.317,1.221-8.723,3.663c-2.442,2.408-3.663,5.314-3.663,8.723
		c0,3.408,1.221,6.324,3.663,8.748c2.406,2.425,5.314,3.637,8.723,3.637c3.426,0,6.35-1.212,8.774-3.637
		c0.59-0.59,1.105-1.21,1.55-1.858c0.45,0.648,0.971,1.268,1.565,1.858c2.407,2.425,5.314,3.637,8.723,3.637
		c3.407,0,6.324-1.212,8.748-3.637c1.193-1.193,2.092-2.506,2.697-3.937v7.574h5.798v-14.52c0-1.229,0.431-2.284,1.291-3.162
		c0.878-0.86,1.924-1.292,3.136-1.292c1.229,0,2.284,0.432,3.162,1.292c0.861,0.878,1.292,1.933,1.292,3.162v14.52h5.85v-14.52
		c0-1.229,0.439-2.284,1.317-3.162c0.861-0.86,1.906-1.292,3.136-1.292c1.229,0,2.275,0.432,3.137,1.292
		c0.877,0.878,1.317,1.933,1.317,3.162v14.52h5.77v-14.52C114.707,70.06,113.706,67.645,111.704,65.642 M53.162,78.16
		c-0.282,0.509-0.651,0.992-1.107,1.449c-1.282,1.265-2.819,1.897-4.611,1.897c-1.776,0-3.304-0.632-4.586-1.897
		c-1.247-1.282-1.87-2.811-1.87-4.585c0-1.775,0.623-3.303,1.87-4.586c1.282-1.265,2.81-1.897,4.586-1.897
		c1.792,0,3.329,0.632,4.611,1.897c0.439,0.457,0.808,0.941,1.107,1.449l4.236-3.176c-1.152,1.868-1.728,3.972-1.728,6.313
		c0,2.331,0.573,4.432,1.715,6.303L53.162,78.16z M72.641,79.609c-1.282,1.265-2.812,1.897-4.585,1.897
		c-1.775,0-3.304-0.632-4.586-1.897c-1.247-1.282-1.87-2.811-1.87-4.585c0-1.775,0.623-3.303,1.87-4.586
		c1.282-1.265,2.811-1.897,4.586-1.897c1.773,0,3.303,0.632,4.585,1.897c1.265,1.283,1.897,2.811,1.897,4.586
		C74.538,76.798,73.906,78.327,72.641,79.609"/>
	<path style="clip-path:url(#SVGID_2_);fill:#FBB017;" d="M131.873,43.431c-1.64-2.248-3.246-4.388-4.826-6.432
		c0.915,4.221,1.239,8.961,0.953,14.322c14.87,28.299,7.52,68.443-30.582,75.317c-11.386,9.348-24.096,10.204-35.699,8.297
		c24.929,9.232,50.115-1.436,62.407-10.918C142.202,110.07,163.901,87.34,131.873,43.431"/>
	<path style="clip-path:url(#SVGID_2_);fill:#FFD300;" d="M25.474,119.25c7.873,6.27,16.335,10.38,23.066,12.459
		c4.115,1.271,8.559,2.467,13.178,3.226c-5.677-2.102-11.34-5.239-16.836-9.655C37.465,123.779,31.002,121.725,25.474,119.25"/>
	<path style="clip-path:url(#SVGID_2_);fill:#FFD300;" d="M53.352,10.888c10.666-6.482,20.315-9.577,30.149-8.054
		C56.95-4.116,24.533-0.939,7.532,43.062C2.459,56.188,1.007,67.778,2.017,77.903C4.504,71.315,9.243,63.8,15.644,56.482
		C20.284,35.535,37.747,20.374,53.352,10.888"/>
	<path style="clip-path:url(#SVGID_2_);fill:#FFD300;" d="M127.047,36.999c-2.966-13.674-12.129-21.921-26.823-28.316
		c-2.123-0.925-4.34-1.82-6.629-2.663C103.743,10.837,114.488,20.746,127.047,36.999"/>
	<path style="clip-path:url(#SVGID_2_);fill:#FCB813;" d="M53.352,10.888c-15.605,9.486-33.068,24.647-37.708,45.594
		c16.492-18.853,44.004-36.389,72.403-33.346c18.514,1.983,32.229,13.486,39.952,28.185c0.287-5.361-0.038-10.101-0.953-14.322
		C114.488,20.746,103.743,10.837,93.594,6.02c-3.231-1.191-6.612-2.275-10.093-3.186C73.667,1.311,64.018,4.406,53.352,10.888"/>
	<path style="clip-path:url(#SVGID_2_);fill:#FCB813;" d="M97.418,126.638c-2.164,0.39-4.424,0.677-6.787,0.845
		c-18.064,1.28-33.262,0.324-45.748-2.202c5.496,4.416,11.159,7.552,16.836,9.654C73.322,136.842,86.032,135.986,97.418,126.638"/>
	<path style="clip-path:url(#SVGID_2_);fill:#FAAD18;" d="M2.017,77.903c-0.896,2.373-1.502,4.626-1.786,6.705
		c-1.739,12.752,6.281,26.154,25.243,34.643C14.049,110.153,3.871,96.505,2.017,77.903"/>
	<path style="clip-path:url(#SVGID_2_);fill:#F6921E;" d="M97.418,126.638C135.521,119.764,142.87,79.62,128,51.321
		c-0.569,10.681-3.559,23.83-9.131,40.287C112.981,108.994,105.536,119.973,97.418,126.638"/>
	<path style="clip-path:url(#SVGID_2_);fill:#F6921E;" d="M28.042,106.453C15.187,87.171,12.534,70.527,15.645,56.482
		C9.243,63.801,4.505,71.315,2.018,77.903c1.853,18.602,12.032,32.25,23.457,41.348c5.528,2.474,11.991,4.529,19.408,6.03
		C39.015,120.564,33.337,114.396,28.042,106.453"/>
	<path style="clip-path:url(#SVGID_2_);fill:#F48120;" d="M88.048,23.136c-28.399-3.043-55.911,14.493-72.403,33.346
		c-3.111,14.045-0.458,30.688,12.397,49.97c5.295,7.944,10.973,14.112,16.841,18.829c12.486,2.526,27.685,3.482,45.748,2.202
		c2.363-0.168,4.623-0.455,6.787-0.845c8.118-6.665,15.564-17.644,21.451-35.03c5.573-16.457,8.562-29.606,9.131-40.287
		C120.277,36.622,106.562,25.119,88.048,23.136"/>
	<rect x="28.357" y="62.565" style="clip-path:url(#SVGID_2_);fill:#FFFFFF;" width="5.823" height="24.844"/>
	<path style="clip-path:url(#SVGID_2_);fill:#FFFFFF;" d="M31.282,51.832c-1.02,0-1.889,0.36-2.608,1.081
		c-0.721,0.72-1.081,1.59-1.081,2.608c0,1.001,0.36,1.872,1.081,2.609c0.719,0.721,1.588,1.081,2.608,1.081
		c1.001,0,1.854-0.36,2.556-1.081c0.72-0.737,1.081-1.608,1.081-2.609c0-1.018-0.361-1.888-1.081-2.608
		C33.136,52.192,32.283,51.832,31.282,51.832"/>
	<path style="clip-path:url(#SVGID_2_);fill:#FFFFFF;" d="M111.704,65.642c-1.986-2.003-4.392-3.004-7.221-3.004
		c-2.899,0-5.359,1.045-7.378,3.136c-2.021-2.091-4.48-3.136-7.379-3.136c-2.811,0-5.218,1.001-7.22,3.004
		c-1.478,1.479-2.407,3.183-2.794,5.111c-0.599-1.637-1.567-3.122-2.908-4.452c-2.424-2.442-5.341-3.663-8.748-3.663
		c-3.409,0-6.316,1.221-8.723,3.663c-0.592,0.584-1.111,1.198-1.56,1.841c-0.446-0.649-0.962-1.264-1.555-1.841
		c-2.424-2.442-5.348-3.663-8.774-3.663c-3.409,0-6.317,1.221-8.723,3.663c-2.442,2.408-3.663,5.314-3.663,8.723
		c0,3.408,1.221,6.324,3.663,8.748c2.406,2.425,5.314,3.637,8.723,3.637c3.426,0,6.35-1.212,8.774-3.637
		c0.59-0.59,1.105-1.21,1.55-1.858c0.45,0.648,0.971,1.268,1.565,1.858c2.407,2.425,5.314,3.637,8.723,3.637
		c3.407,0,6.324-1.212,8.748-3.637c1.193-1.193,2.092-2.506,2.697-3.937v7.574h5.798v-14.52c0-1.229,0.431-2.284,1.291-3.162
		c0.878-0.86,1.924-1.292,3.136-1.292c1.229,0,2.284,0.432,3.162,1.292c0.861,0.878,1.292,1.933,1.292,3.162v14.52h5.85v-14.52
		c0-1.229,0.439-2.284,1.317-3.162c0.861-0.86,1.906-1.292,3.136-1.292c1.229,0,2.275,0.432,3.137,1.292
		c0.877,0.878,1.317,1.933,1.317,3.162v14.52h5.77v-14.52C114.707,70.06,113.706,67.645,111.704,65.642 M53.162,78.16
		c-0.282,0.509-0.651,0.992-1.107,1.449c-1.282,1.265-2.819,1.897-4.611,1.897c-1.776,0-3.304-0.632-4.586-1.897
		c-1.247-1.282-1.87-2.811-1.87-4.585c0-1.775,0.623-3.303,1.87-4.586c1.282-1.265,2.81-1.897,4.586-1.897
		c1.792,0,3.329,0.632,4.611,1.897c0.439,0.457,0.808,0.941,1.107,1.449l4.236-3.176c-1.152,1.868-1.728,3.972-1.728,6.313
		c0,2.331,0.573,4.432,1.715,6.303L53.162,78.16z M72.641,79.609c-1.282,1.265-2.812,1.897-4.585,1.897
		c-1.775,0-3.304-0.632-4.586-1.897c-1.247-1.282-1.87-2.811-1.87-4.585c0-1.775,0.623-3.303,1.87-4.586
		c1.282-1.265,2.811-1.897,4.586-1.897c1.773,0,3.303,0.632,4.585,1.897c1.265,1.283,1.897,2.811,1.897,4.586
		C74.538,76.798,73.906,78.327,72.641,79.609"/>
</g>
</svg>
